<svg id="Layer_1" data-name="Layer 1" xmlns="http://www.w3.org/2000/svg" viewBox="0 0 259.24 148.32"><title>lays</title><path d="M393,238.16a14.51,14.51,0,0,0-4.1-10.05,18.34,18.34,0,0,0-6.89-4.54,21.78,21.78,0,0,0-7.85-1.4,24.53,24.53,0,0,0-6.43.84,13.73,13.73,0,0,0-1.35-.48,17,17,0,0,0-4.78-.66h-.32a29.89,29.89,0,0,0-3.67.33c-.93.14-2.21.38-4,.75l-1,.21h0A17.74,17.74,0,0,0,359.42,209a20.84,20.84,0,0,0-4.87-13.08,29.09,29.09,0,0,0-10.9-8.27,34.87,34.87,0,0,0-14.59-3c-8.54,0-15.74,1.84-21.47,5.47a15.38,15.38,0,0,0-3.28-2.66,20.69,20.69,0,0,0-11-2.69c-7,0-12.9,2.94-16.56,8.27a31.48,31.48,0,0,0-2.15,3.65c-2.67-8.19-9.83-13.24-19.33-13.24a38.09,38.09,0,0,0-10.72,1.27c-6.12,1.81-8.91,5.31-10.19,8.38-.47-.41-1-.82-1.45-1.2a33.22,33.22,0,0,0-9.91-5.4,28.48,28.48,0,0,0-8.77-1.62A44.89,44.89,0,0,0,189.67,192c-.35.22-.67.46-1,.69l.3-1.28,5-20.73.4-1.64-.07-1.69c-.14-3.4-1.48-9.8-8.8-14.51a22.12,22.12,0,0,0-21.48-2.09c-7,2.89-9.19,8.08-9.84,10.92L153.9,163v1.37c0,4.59,0,7.19.06,8.76l-5.23,21.25-.52,2.1L144,213.32c-2.33,9.33-4.44,17.5-6.25,24.29l0,.06v.06a26.28,26.28,0,0,1-1.38,4.33l-1.13,2.37-1.42,2.88.22,3.18a18.22,18.22,0,0,0,9.64,15.19,25.44,25.44,0,0,0,12.18,3.12,18.71,18.71,0,0,0,8.53-2.46c1.81-.93,6.57-3.38,8.36-8.72l.07-.22.06-.22c.14-.49.31-1.1.51-1.82a25.42,25.42,0,0,0,2.81,2.9,31.3,31.3,0,0,0,21.29,7.66,28.52,28.52,0,0,0,10.11-2.12l.51.36c3.3,2.23,7.52,3.32,12.9,3.32a21.71,21.71,0,0,0,9.85-2.62,16.74,16.74,0,0,0-4.93,11.86A19.73,19.73,0,0,0,233,291.89c4.27,3.64,10.33,5.34,19.07,5.34,12,0,21.79-2.92,29.13-8.68s12.49-14.36,16-26.5a36.7,36.7,0,0,0,8.18,4.41,39.6,39.6,0,0,0,14.53,2.69c9.27,0,17.08-2.05,23.25-6.06.2.14.4.29.61.43a18,18,0,0,0,10,2.75,19.35,19.35,0,0,0,7.55-1.49c.52.23,1.06.46,1.61.66a23,23,0,0,0,7.73,1.31,27.3,27.3,0,0,0,8.35-1.22,18.82,18.82,0,0,0,8.37-5.27,16.16,16.16,0,0,0,4.22-11,18,18,0,0,0-.47-4.16A13.59,13.59,0,0,0,393,238.16ZM379,246.65a5.56,5.56,0,0,0-.73-.91,5.56,5.56,0,0,1,.73.91,3.6,3.6,0,0,1,.29.55A3.6,3.6,0,0,0,379,246.65ZM255.56,243a5.08,5.08,0,0,0,.58.84,3.79,3.79,0,0,0,.76.68,3.79,3.79,0,0,1-.76-.68A5.08,5.08,0,0,1,255.56,243Zm-6.26,30.63a10.94,10.94,0,0,0,2.16,1.11,6.27,6.27,0,0,0,.8.24,15.64,15.64,0,0,0,3.4.3,5.84,5.84,0,0,0,1.07-.11,10.26,10.26,0,0,0,2.46-.84,10.26,10.26,0,0,1-2.46.84,5.84,5.84,0,0,1-1.07.11,15.65,15.65,0,0,1-3.4-.3,6.27,6.27,0,0,1-.8-.24A10.94,10.94,0,0,1,249.3,273.62Zm-14.36-11.92a12.88,12.88,0,0,0,1.29-1.65c.22.23.41.46.65.69A17.6,17.6,0,0,0,234.94,261.69Zm39.8,16.62q-.47.42-1,.8a24.27,24.27,0,0,1-4.28,2.68,24.27,24.27,0,0,0,4.28-2.68q.49-.38,1-.8a25.52,25.52,0,0,0,2.71-2.79A25.53,25.53,0,0,1,274.74,278.31Zm11-19.84q-.79,2.72-1.7,5.15-.61,1.62-1.28,3.11.67-1.49,1.28-3.11.91-2.43,1.7-5.15.72-2.46,1.61-5.88c.23-.88.47-1.82.72-2.79h0c-.25,1-.49,1.91-.72,2.79Q286.5,256,285.78,258.47Zm85.32-3.73h0a18,18,0,0,0,2.08-.15A18,18,0,0,1,371.1,254.74Z" transform="translate(-133.79 -148.91)" style="fill:#ff5858"/><path d="M179,162.95a10.2,10.2,0,0,0-10.44-1.08q-2.34,1-2.7,2.52,0,9,.12,10l-5.64,22.92-4.74,19q-3.54,14.16-6.3,24.48a37.74,37.74,0,0,1-2.16,6.48l-1.2,2.52a6.18,6.18,0,0,0,3.36,5.4,13.5,13.5,0,0,0,6.48,1.68,8.6,8.6,0,0,0,3.06-1.14q2.22-1.14,2.46-1.86,2.4-8.16,16-65.16l5-20.76Q182.22,165,179,162.95Z" transform="translate(-133.79 -148.91)" style="fill:#fff"/><path d="M233.22,208.67a4.13,4.13,0,0,0-2.28-1,20.65,20.65,0,0,0-5.34-6.3,21.19,21.19,0,0,0-6.3-3.48,17.2,17.2,0,0,0-5-1,32.93,32.93,0,0,0-18.12,5.22,36.84,36.84,0,0,0-12.78,13.8,38,38,0,0,0-4.62,18.3q0,10.32,5.34,15a19.56,19.56,0,0,0,13.38,4.68q3.12,0,8.22-2.34a19.32,19.32,0,0,0,7.74-5.94,24.37,24.37,0,0,0-.48,4.8,4.26,4.26,0,0,0,1.86,3.78q1.86,1.26,6.18,1.26a9.11,9.11,0,0,0,3.18-.72q1.86-.72,2.1-1.44a36.26,36.26,0,0,1-.84-5.64l8.76-34.92a6.79,6.79,0,0,0,.36-2.16A2.58,2.58,0,0,0,233.22,208.67Zm-17.28,22.08a15,15,0,0,1-4,6.42,24,24,0,0,1-7,4.86,16.84,16.84,0,0,1-6.9,1.8,4.58,4.58,0,0,1-4.68-3.24,24.15,24.15,0,0,1-1.2-8.28,23.71,23.71,0,0,1,3-10.92,30,30,0,0,1,7.86-9.66,16.31,16.31,0,0,1,10.38-3.9,6.14,6.14,0,0,1,3.78,1.8,8.78,8.78,0,0,1,2.82,4.44Z" transform="translate(-133.79 -148.91)" style="fill:#fff"/><path d="M293.34,196.79q-4.56,0-6.66,3.06a26.1,26.1,0,0,0-3.42,7.86q-3,11.16-5.28,20.76l-2.28,9.48a26.43,26.43,0,0,1-7.32,5.28,18.12,18.12,0,0,1-8,2.16,5.21,5.21,0,0,1-4.2-1.56,6.09,6.09,0,0,1-1.32-4.08,11.82,11.82,0,0,1,.36-2.88l8.52-34.08q-.72-7.32-8.4-7.32a27,27,0,0,0-7.32.78q-2.64.78-2.64,2a1.15,1.15,0,0,0,.36.84l3.12,3.6-7.68,30.48a21.94,21.94,0,0,0-.72,5.28q0,8.16,4.26,13.08t12.18,4.92a19.58,19.58,0,0,0,8.64-1.86,32.46,32.46,0,0,0,7.92-5.7l-3,10.44a28.61,28.61,0,0,1-4.26,8.94,19.27,19.27,0,0,1-5.58,5.34,10.26,10.26,0,0,1-4.92,1.68,12.54,12.54,0,0,1-4.2-.54,11.62,11.62,0,0,1-2.88-1.62,11.71,11.71,0,0,0-2.22-1.26,7.59,7.59,0,0,0-2.82-.42,5.69,5.69,0,0,0-3.9,1.56,4.83,4.83,0,0,0-1.74,3.72,7.67,7.67,0,0,0,2.88,6.06q2.88,2.46,11.28,2.46,13.92,0,21.72-6.12t12-20.64q2.88-9.84,8.52-35l4.68-19.8a12.61,12.61,0,0,1,.42-1.5,5,5,0,0,0,.3-1.5Q299.7,196.79,293.34,196.79Z" transform="translate(-133.79 -148.91)" style="fill:#fff"/><path d="M338.66,198.59a22.87,22.87,0,0,0-9.6-1.92q-10.68,0-16.56,4.68t-5.88,13.32a14.8,14.8,0,0,0,3.84,9.54,21.37,21.37,0,0,0,10.32,6.66A11.76,11.76,0,0,1,327,235a10,10,0,0,1,2,5.94,5.85,5.85,0,0,1-1.74,4.5q-1.74,1.62-6.3,1.62a14.36,14.36,0,0,1-5.34-1.26,17.79,17.79,0,0,1-5.34-3.36,6.56,6.56,0,0,1-2.4-4.5,12.85,12.85,0,0,0-6.3,2.4,5.86,5.86,0,0,0-2.22,4.8,8.49,8.49,0,0,0,2.88,5.52,21.61,21.61,0,0,0,7.5,4.62,27.53,27.53,0,0,0,10.14,1.86q10.92,0,17.34-4.5t6.42-13.14a16.34,16.34,0,0,0-2.16-8.76,16.15,16.15,0,0,0-5.16-5.34,61.63,61.63,0,0,0-7.68-3.9,36.43,36.43,0,0,1-6.36-3.3,4.71,4.71,0,0,1-2-3.78q0-3,3.06-5.16a11.68,11.68,0,0,1,6.9-2.16,7.58,7.58,0,0,1,5.7,2.64,10.14,10.14,0,0,1,2.7,6.48,13.25,13.25,0,0,0,6.42-2.46,5.79,5.79,0,0,0,2.34-4.74,9.16,9.16,0,0,0-2.28-5.64A17.18,17.18,0,0,0,338.66,198.59Z" transform="translate(-133.79 -148.91)" style="fill:#fff"/><path d="M363,234a5.08,5.08,0,0,0-1.42-.18,17.75,17.75,0,0,0-2.19.19q-1.08.17-3.45.65-1.17.51-1.17,1.38a1.72,1.72,0,0,0,.31,1,1.83,1.83,0,0,0,.92.65q1.26-.27,3.21-.6l-2.91,11.25a4.59,4.59,0,0,1-1.19,2.31,2.31,2.31,0,0,1-1.51.63,2.53,2.53,0,0,1-1.73-.54,2.59,2.59,0,0,1-.64-2,2.14,2.14,0,0,1,.51-1,2.06,2.06,0,0,0,.48-1q0-.45-.6-.73a3.92,3.92,0,0,0-1.65-.28,1.58,1.58,0,0,0-1.52.79,5.55,5.55,0,0,0-.43,2.53,5.62,5.62,0,0,0,.5,2.25,4.5,4.5,0,0,0,1.77,2,6.32,6.32,0,0,0,3.46.82,6.41,6.41,0,0,0,4.31-1.39,6.86,6.86,0,0,0,2.21-3.56q1-3.9,2.22-8.94a49.46,49.46,0,0,0,1.2-5.79Q363.66,234.23,363,234Z" transform="translate(-133.79 -148.91)" style="fill:#fff"/><path d="M380.16,236.3a6.44,6.44,0,0,0-2.43-1.53,9.81,9.81,0,0,0-3.54-.6,11.37,11.37,0,0,0-4.46.8,6.41,6.41,0,0,0-2.85,2.19,5.39,5.39,0,0,0-1,3.17A4.42,4.42,0,0,0,367,243.5a10.77,10.77,0,0,0,3.09,2.16l1.59.72a14.32,14.32,0,0,1,2.66,1.33,1.83,1.83,0,0,1,.88,1.54A1.92,1.92,0,0,1,374,251a6,6,0,0,1-4.86.23,6.9,6.9,0,0,1-2-1.09,2.55,2.55,0,0,1-1-1.56,4.79,4.79,0,0,0-2.13.76,1.7,1.7,0,0,0-.75,1.43,2.58,2.58,0,0,0,1,1.83,7.84,7.84,0,0,0,2.73,1.54,11,11,0,0,0,3.71.62,15.32,15.32,0,0,0,4.68-.65,7,7,0,0,0,3.14-1.89,4.26,4.26,0,0,0,1.13-3,4.73,4.73,0,0,0-.66-2.61,5.13,5.13,0,0,0-1.61-1.61,22,22,0,0,0-2.56-1.3l-.9-.42-1.08-.45a11,11,0,0,1-2.08-1.09,1.66,1.66,0,0,1-.67-1.43,2.67,2.67,0,0,1,1.16-2.16,5,5,0,0,1,3.13-.9,4.59,4.59,0,0,1,2.05.47,3.59,3.59,0,0,1,1.52,1.42,1.2,1.2,0,0,1,.12.29,1,1,0,0,0,.21.36.67.67,0,0,0,.51.17,2.64,2.64,0,0,0,1.6-.5,1.57,1.57,0,0,0,.67-1.33A2.76,2.76,0,0,0,380.16,236.3Z" transform="translate(-133.79 -148.91)" style="fill:#fff"/></svg>